<?xml version="1.0" encoding="utf-8"?>
<!-- Generator: Adobe Illustrator 23.0.2, SVG Export Plug-In . SVG Version: 6.00 Build 0)  -->
<svg version="1.1" id="Layer_1" xmlns="http://www.w3.org/2000/svg" xmlns:xlink="http://www.w3.org/1999/xlink" x="0px" y="0px"
	 viewBox="0 0 233 80" style="enable-background:new 0 0 233 80;" xml:space="preserve">
<style type="text/css">
	.st0{fill:none;}
	.st1{fill:#4BA5B4;}
	.st2{fill:#005564;}
	.st3{fill:#9B9B9B;}
	.st4{enable-background:new    ;}
	.st5{fill:#00838F;}
</style>
<g id="_00-Cockpit_Logo" transform="translate(-350)">
	<g id="Group_2136">
		<rect id="Rectangle_1746" x="350" class="st0" width="80" height="80"/>
		<g id="Group_2135" transform="translate(354 -2.923)">
			<path id="Path_1509" class="st1" d="M63.1,39.4v1.3c0,0.6-0.5,1.1-1.1,1.1c0,0,0,0,0,0H1c-0.6,0-1-0.5-1-1.1c0,0,0-0.1,0-0.1
				v-1.3H63.1z"/>
			<path id="Path_1510" class="st2" d="M57.3,37.7c-1-12.4-12.2-22.1-25.8-22.1S6.6,25.3,5.7,37.8h2.8c1.4-11.7,11.2-21,23-21
				c11.8,0.1,21.7,9.1,23,20.8L57.3,37.7z"/>
			<path id="Path_1511" class="st2" d="M32.8,37.4l-2.6-1.4l9.4-14.7L32.8,37.4z"/>
			<path id="Path_1512" class="st3" d="M23.6,45.5c0,0-12-1.8-14-2.2s-4.8-0.3-4,1.5c0.8,1.9,16.7,6.4,17.4,6.7
				c1.9,0.9,3.8,2,5.5,3.2c1,1,3.1,2.7,5.6,2.4s11.5,0.3,14,1.1s2.8,1.5,5.5,6.7c1.5,3.1,3.3,6,5.4,8.7c0.4,0.4,1.9,1.1,3.9-0.4
				s6.8-5.8,6.8-5.8c1.2-1.2,1.3-3.1,0.3-4.4C59.2,47.7,58,46.4,58,46.4s-4-4.9-12.5-1.7c0,0-1.5,1.2-6.9,1.1
				c-4.4-0.1-11.8-1.6-13.6-0.4c-2.1,1.4,1.3,2.8,2.8,3.4s4.5,1.8,16.5,2.3c0,0-9.2,1.4-17.3-1.7C27.1,49.3,21.8,47.5,23.6,45.5z"/>
			<path id="Path_1513" class="st1" d="M34.5,11.9h-5.9l1.3,2.2l0.1,0.1l0.1,0.1l0,0c0.7,0.9,1.9,1,2.8,0.3c0.1-0.1,0.2-0.2,0.3-0.3
				l0,0L34.5,11.9z"/>
			<ellipse id="Ellipse_364" class="st2" cx="31.6" cy="36.5" rx="1.9" ry="1.9"/>
		</g>
	</g>
	<g id="Cockpit_Logo" transform="translate(92)">
		<g class="st4">
			<path class="st5" d="M354.8,50.9c-2-1.7-3-4.1-3.1-7.3c0-0.6,0-1.7,0-3.2c0-1.5,0-2.6,0-3.2c0.1-3.1,1.2-5.5,3.1-7.2
				c2-1.7,4.7-2.5,8-2.5c2.1,0,4,0.3,5.7,1s3,1.7,4,3c1,1.3,1.5,2.9,1.5,4.7c0,0.2-0.1,0.4-0.2,0.5c-0.2,0.1-0.3,0.2-0.6,0.2h-5.1
				c-0.3,0-0.6-0.1-0.7-0.2s-0.3-0.4-0.4-0.7c-0.3-1.2-0.8-2-1.5-2.5s-1.6-0.7-2.7-0.7c-2.7,0-4.1,1.5-4.2,4.5c0,0.6,0,1.6,0,3
				s0,2.4,0,3.1c0.1,3,1.5,4.5,4.2,4.5c1.1,0,2-0.2,2.7-0.7c0.7-0.5,1.2-1.3,1.5-2.4c0.1-0.4,0.2-0.6,0.4-0.7
				c0.2-0.1,0.4-0.2,0.8-0.2h5.1c0.2,0,0.4,0.1,0.6,0.2c0.2,0.1,0.2,0.3,0.2,0.5c0,1.8-0.6,3.4-1.5,4.7c-1,1.3-2.3,2.3-4,3
				c-1.7,0.7-3.6,1-5.7,1C359.5,53.4,356.8,52.5,354.8,50.9z"/>
			<path class="st5" d="M379.5,51.3c-1.6-1.4-2.5-3.4-2.6-6c0-0.3,0-0.9,0-1.6c0-0.8,0-1.3,0-1.6c0.1-2.5,1.1-4.5,2.7-6
				c1.7-1.4,4-2.1,6.9-2.1s5.2,0.7,6.9,2.1c1.7,1.4,2.6,3.4,2.7,6c0,0.6,0.1,1.2,0.1,1.6c0,0.5,0,1-0.1,1.6c-0.1,2.6-1,4.6-2.6,6
				c-1.6,1.4-3.9,2.1-7,2.1S381.1,52.7,379.5,51.3z M388.7,47.9c0.5-0.6,0.8-1.6,0.8-2.8c0-0.2,0-0.7,0-1.4c0-0.7,0-1.2,0-1.4
				c-0.1-1.2-0.3-2.2-0.8-2.8c-0.5-0.6-1.2-0.9-2.2-0.9c-1,0-1.7,0.3-2.2,0.9c-0.5,0.6-0.8,1.6-0.8,2.8l0,1.4l0,1.4
				c0.1,1.3,0.3,2.2,0.8,2.8c0.5,0.6,1.2,0.9,2.2,0.9C387.5,48.8,388.2,48.5,388.7,47.9z"/>
			<path class="st5" d="M401.6,51.2c-1.7-1.5-2.6-3.5-2.7-6.1l0-1.4l0-1.5c0.1-2.6,1-4.6,2.7-6.1s3.9-2.2,6.7-2.2
				c2.1,0,3.8,0.4,5.3,1.1s2.5,1.6,3.2,2.6c0.7,1,1.1,2,1.1,2.8c0,0.3-0.1,0.5-0.3,0.7c-0.2,0.2-0.4,0.3-0.7,0.3h-4.8
				c-0.3,0-0.5-0.1-0.6-0.2c-0.1-0.1-0.3-0.3-0.4-0.6c-0.3-0.7-0.6-1.2-1-1.5c-0.4-0.3-1-0.5-1.6-0.5c-1.8,0-2.8,1.2-2.9,3.7l0,1.4
				l0,1.2c0,1.2,0.3,2.2,0.8,2.8c0.5,0.6,1.2,0.9,2.1,0.9c0.7,0,1.2-0.1,1.6-0.5c0.4-0.3,0.7-0.8,1-1.5c0.1-0.3,0.3-0.5,0.4-0.6
				c0.1-0.1,0.3-0.2,0.6-0.2h4.8c0.2,0,0.5,0.1,0.6,0.3c0.2,0.2,0.3,0.4,0.3,0.6c0,0.7-0.3,1.6-1,2.7c-0.7,1-1.7,2-3.2,2.8
				s-3.2,1.2-5.4,1.2C405.5,53.4,403.3,52.6,401.6,51.2z"/>
			<path class="st5" d="M421.2,52.7c-0.2-0.2-0.3-0.4-0.3-0.6V28.3c0-0.3,0.1-0.5,0.3-0.6s0.4-0.3,0.7-0.3h4.4
				c0.3,0,0.5,0.1,0.6,0.3s0.3,0.4,0.3,0.6v12l4.8-5.5c0,0,0.1-0.1,0.3-0.3c0.1-0.1,0.3-0.2,0.4-0.3c0.1-0.1,0.3-0.1,0.5-0.1h5.1
				c0.2,0,0.4,0.1,0.6,0.2c0.2,0.2,0.2,0.4,0.2,0.6c0,0.2-0.1,0.4-0.3,0.6l-6.3,7l7.2,9c0.2,0.2,0.3,0.4,0.3,0.5
				c0,0.2-0.1,0.4-0.2,0.6c-0.2,0.2-0.4,0.2-0.6,0.2h-5.2c-0.3,0-0.5,0-0.7-0.1c-0.2-0.1-0.3-0.3-0.6-0.5l-5.5-6.8v6.5
				c0,0.2-0.1,0.5-0.3,0.6c-0.2,0.2-0.4,0.3-0.6,0.3h-4.4C421.6,53,421.4,52.9,421.2,52.7z"/>
			<path class="st5" d="M442.5,59.6c-0.2-0.2-0.3-0.4-0.3-0.6V35.2c0-0.3,0.1-0.5,0.3-0.6s0.4-0.3,0.7-0.3h4.3
				c0.3,0,0.5,0.1,0.6,0.3s0.3,0.4,0.3,0.6v1.3c1.3-1.7,3.2-2.6,5.6-2.6c2.3,0,4.2,0.7,5.5,2.2c1.3,1.5,2,3.5,2.1,6.2
				c0,0.3,0,0.8,0,1.3c0,0.6,0,1,0,1.4c-0.1,2.6-0.8,4.6-2.2,6.1c-1.3,1.5-3.2,2.2-5.5,2.2c-2.3,0-4.1-0.8-5.2-2.4v8
				c0,0.3-0.1,0.5-0.3,0.6s-0.4,0.3-0.6,0.3h-4.6C442.9,59.8,442.6,59.8,442.5,59.6z M454.1,47.4c0.5-0.6,0.7-1.5,0.8-2.6
				c0-0.2,0-0.6,0-1.1s0-0.9,0-1.1c-0.1-1.1-0.3-2-0.8-2.6c-0.5-0.6-1.2-1-2.3-1c-1,0-1.8,0.3-2.3,1s-0.8,1.5-0.8,2.5
				c0,0.3,0,0.8,0,1.4c0,0.6,0,1,0,1.3c0,0.9,0.3,1.7,0.8,2.3c0.5,0.6,1.3,0.9,2.3,0.9C452.9,48.4,453.7,48,454.1,47.4z"/>
			<path class="st5" d="M465.3,31.4c-0.2-0.2-0.3-0.4-0.3-0.7v-3.3c0-0.3,0.1-0.5,0.3-0.7c0.2-0.2,0.4-0.3,0.6-0.3h4.5
				c0.3,0,0.5,0.1,0.7,0.3c0.2,0.2,0.3,0.4,0.3,0.7v3.3c0,0.3-0.1,0.5-0.3,0.7s-0.4,0.3-0.7,0.3h-4.5
				C465.7,31.7,465.4,31.6,465.3,31.4z M465.3,52.7c-0.2-0.2-0.3-0.4-0.3-0.6V35.2c0-0.3,0.1-0.5,0.3-0.6c0.2-0.2,0.4-0.3,0.6-0.3
				h4.5c0.3,0,0.5,0.1,0.7,0.3s0.3,0.4,0.3,0.6v16.9c0,0.3-0.1,0.5-0.3,0.6s-0.4,0.3-0.7,0.3h-4.5C465.7,53,465.5,52.9,465.3,52.7z"
				/>
			<path class="st5" d="M477.7,45.8v-6.7h-2.8c-0.2,0-0.5-0.1-0.6-0.3c-0.2-0.2-0.3-0.4-0.3-0.6v-3.1c0-0.3,0.1-0.5,0.3-0.6
				c0.2-0.2,0.4-0.3,0.6-0.3h2.8v-5.9c0-0.3,0.1-0.5,0.3-0.6c0.2-0.2,0.4-0.3,0.6-0.3h4.4c0.3,0,0.5,0.1,0.6,0.3
				c0.2,0.2,0.3,0.4,0.3,0.6v5.9h4.5c0.3,0,0.5,0.1,0.7,0.3c0.2,0.2,0.3,0.4,0.3,0.6v3.1c0,0.3-0.1,0.5-0.3,0.6
				c-0.2,0.2-0.4,0.3-0.7,0.3h-4.5v6.1c0,0.8,0.2,1.5,0.5,1.9c0.3,0.4,0.8,0.6,1.5,0.6h2.8c0.3,0,0.5,0.1,0.6,0.3
				c0.2,0.2,0.3,0.4,0.3,0.7v3.3c0,0.2-0.1,0.5-0.3,0.6c-0.2,0.2-0.4,0.3-0.6,0.3h-3.4C480.2,53,477.7,50.6,477.7,45.8z"/>
		</g>
	</g>
</g>
</svg>
